<?xml version="1.0" encoding="UTF-8"?>
<svg width="60px" height="16px" viewBox="0 0 60 16" version="1.1" xmlns="http://www.w3.org/2000/svg" xmlns:xlink="http://www.w3.org/1999/xlink">
    <title>deqard logo</title>
    <defs>
        <polygon id="path-1" points="0.392514286 0.517257143 9.9388 0.517257143 9.9388 12.5714286 0.392514286 12.5714286"></polygon>
        <polygon id="path-3" points="0.286 0.181257143 9.832 0.181257143 9.832 12.3989714 0.286 12.3989714"></polygon>
    </defs>
    <g id="deqard-logo" stroke="none" stroke-width="1" fill="none" fill-rule="evenodd">
        <g id="Group">
            <path d="M5.48885714,7.55725714 L4.66485714,6.73325714 C4.54028571,6.60868571 4.54028571,6.40697143 4.66485714,6.2824 L5.48885714,5.4584 C5.61342857,5.33382857 5.81514286,5.33382857 5.93971429,5.4584 L6.76371429,6.2824 C6.88828571,6.40697143 6.88828571,6.60868571 6.76371429,6.73325714 L5.93971429,7.55725714 C5.81514286,7.68182857 5.61342857,7.68182857 5.48885714,7.55725714" id="Fill-1" fill="#2B6BF2"></path>
            <path d="M2.28571429,11.0793143 C2.28571429,11.7101714 1.77371429,12.2221714 1.14285714,12.2221714 C0.512,12.2221714 -2.60014232e-13,11.7101714 -2.60014232e-13,11.0793143 C-2.60014232e-13,10.4484571 0.512,9.93645714 1.14285714,9.93645714 C1.77371429,9.93645714 2.28571429,10.4484571 2.28571429,11.0793143" id="Fill-3" fill="#2B6BF2"></path>
            <path d="M5.71428571,0.7936 L-3.90798505e-13,0.7936 L-3.90798505e-13,7.65074286 L4,7.65074286 L4,5.36502857 L2.28571429,5.36502857 L2.28571429,3.07931429 L5.71428571,3.07931429 C7.6,3.07931429 9.14285714,4.62217143 9.14285714,6.50788571 C9.14285714,8.3936 7.6,9.93645714 5.71428571,9.93645714 L2.85714286,9.93645714 L2.85714286,12.2221714 L5.71428571,12.2221714 C8.86971429,12.2221714 11.4285714,9.66388571 11.4285714,6.50788571 C11.4285714,3.35188571 8.86971429,0.7936 5.71428571,0.7936" id="Fill-5" fill="#333333"></path>
            <path d="M15.6428571,5.78497143 C15.2514286,6.11011429 15.012,6.55582857 14.9251429,7.1204 L19.2417143,7.1204 C19.1554286,6.56668571 18.916,6.1244 18.5262857,5.79297143 C18.1348571,5.46154286 17.656,5.29582857 17.0914286,5.29582857 C16.516,5.29582857 16.0325714,5.45868571 15.6428571,5.78497143 M21.588,8.60268571 L14.9571429,8.60268571 C15.0765714,9.14611429 15.3588571,9.57525714 15.804,9.89011429 C16.2497143,10.2044 16.804,10.3626857 17.4662857,10.3626857 C17.9228571,10.3626857 18.3268571,10.2941143 18.6794286,10.1581143 C19.0325714,10.0232571 19.3611429,9.8084 19.6662857,9.51525714 L21.0182857,10.9809714 C20.1925714,11.9261143 18.9874286,12.3986857 17.4017143,12.3986857 C16.4131429,12.3986857 15.5388571,12.2055429 14.7782857,11.8204 C14.0182857,11.4352571 13.4314286,10.8998286 13.0188571,10.2152571 C12.6068571,9.53125714 12.4,8.75525714 12.4,7.88611429 C12.4,7.0284 12.6045714,6.25468571 13.0114286,5.56497143 C13.4177143,4.87582857 13.9777143,4.33811429 14.6891429,3.95182857 C15.4,3.56725714 16.1954286,3.37411429 17.076,3.37411429 C17.9337143,3.37411429 18.7102857,3.55868571 19.4051429,3.92782857 C20.0994286,4.29697143 20.6457143,4.82668571 21.0417143,5.51582857 C21.4388571,6.20554286 21.6371429,7.00668571 21.6371429,7.91868571 C21.6371429,7.95125714 21.62,8.17925714 21.588,8.60268571" id="Fill-7" fill="#333333"></path>
            <g id="Group-11" transform="translate(22.285714, 2.857143)">
                <mask id="mask-2" fill="white">
                    <use xlink:href="#path-1"></use>
                </mask>
                <g id="Clip-10"></g>
                <path d="M6.81137143,6.79668571 C7.23422857,6.35668571 7.44622857,5.76754286 7.44622857,5.02925714 C7.44622857,4.2904 7.23422857,3.70125714 6.81137143,3.26182857 C6.38737143,2.82182857 5.85537143,2.60182857 5.21365714,2.60182857 C4.5628,2.60182857 4.02451429,2.82182857 3.60165714,3.26182857 C3.17765714,3.70125714 2.96622857,4.2904 2.96622857,5.02925714 C2.96622857,5.76754286 3.17765714,6.35668571 3.60165714,6.79668571 C4.02451429,7.23611429 4.5628,7.45611429 5.21365714,7.45611429 C5.85537143,7.45611429 6.38737143,7.23611429 6.81137143,6.79668571 L6.81137143,6.79668571 Z M9.9388,0.646971429 L9.9388,12.5715429 L7.39708571,12.5715429 L7.39708571,8.4824 C6.76737143,9.18868571 5.89251429,9.54182857 4.77537143,9.54182857 C3.94908571,9.54182857 3.2028,9.35668571 2.5348,8.98754286 C1.8668,8.6184 1.3428,8.09154286 0.962228571,7.40697143 C0.582228571,6.72354286 0.392514286,5.9304 0.392514286,5.02925714 C0.392514286,4.12754286 0.582228571,3.3344 0.962228571,2.65097143 C1.3428,1.9664 1.8668,1.43954286 2.5348,1.0704 C3.2028,0.701257143 3.94908571,0.517257143 4.77537143,0.517257143 C5.96908571,0.517257143 6.88165714,0.896685714 7.51137143,1.65725714 L7.51137143,0.646971429 L9.9388,0.646971429 Z" id="Fill-9" fill="#333333" mask="url(#mask-2)"></path>
            </g>
            <path d="M38.7796,10.3862286 C39.1167429,10.1856571 39.3550286,9.88965714 39.4967429,9.4988 L39.4967429,8.6028 L37.7538857,8.6028 C36.7116,8.6028 36.1893143,8.94451429 36.1893143,9.62908571 C36.1893143,9.9548 36.3178857,10.2130857 36.5727429,10.4028 C36.8281714,10.5930857 37.1778857,10.6879429 37.6241714,10.6879429 C38.0573143,10.6879429 38.4430286,10.5879429 38.7796,10.3862286 M40.9470286,4.34337143 C41.6733143,4.98965714 42.0384571,5.96394286 42.0384571,7.26737143 L42.0384571,12.2679429 L39.6601714,12.2679429 L39.6601714,11.1765143 C39.1813143,11.9913714 38.2916,12.3988 36.9887429,12.3988 C36.3156,12.3988 35.7304571,12.2845143 35.2378857,12.0565143 C34.7430286,11.8279429 34.3647429,11.5130857 34.1053143,11.1113714 C33.8441714,10.7096571 33.7144571,10.2536571 33.7144571,9.74337143 C33.7144571,8.92851429 34.0207429,8.28794286 34.6344571,7.82108571 C35.2481714,7.35365714 36.1950286,7.12051429 37.4767429,7.12051429 L39.4967429,7.12051429 C39.4967429,6.56622857 39.3287429,6.14108571 38.9916,5.84165714 C38.6550286,5.5428 38.1498857,5.39365714 37.4767429,5.39365714 C37.0098857,5.39365714 36.5516,5.46737143 36.1007429,5.61365714 C35.6493143,5.76051429 35.2670286,5.95822857 34.9527429,6.20851429 L34.0390286,4.43308571 C34.5178857,4.09594286 35.0904571,3.83537143 35.7584571,3.65022857 C36.4270286,3.46622857 37.1133143,3.37422857 37.8184571,3.37422857 C39.1761714,3.37422857 40.2196,3.69708571 40.9470286,4.34337143" id="Fill-12" fill="#333333"></path>
            <path d="M47.6562286,3.6996 C48.1716571,3.48245714 48.7670857,3.37445714 49.4408,3.37445714 L49.4408,5.7196 C49.1585143,5.69845714 48.9688,5.68702857 48.8705143,5.68702857 C48.1430857,5.68702857 47.5728,5.89045714 47.1602286,6.29788571 C46.7465143,6.70474286 46.5413714,7.31617143 46.5413714,8.13045714 L46.5413714,12.2681714 L44.0002286,12.2681714 L44.0002286,3.50417143 L46.4276571,3.50417143 L46.4276571,4.66074286 C46.7310857,4.23731429 47.1408,3.91674286 47.6562286,3.6996" id="Fill-14" fill="#333333"></path>
            <g id="Group-18" transform="translate(49.714286, 0.000000)">
                <mask id="mask-4" fill="white">
                    <use xlink:href="#path-3"></use>
                </mask>
                <g id="Clip-17"></g>
                <path d="M6.70314286,9.65382857 C7.12771429,9.21382857 7.338,8.62468571 7.338,7.8864 C7.338,7.14754286 7.12771429,6.5584 6.70314286,6.11897143 C6.28085714,5.67897143 5.74771429,5.45897143 5.10714286,5.45897143 C4.45628571,5.45897143 3.918,5.67897143 3.49514286,6.11897143 C3.07114286,6.5584 2.85857143,7.14754286 2.85857143,7.8864 C2.85857143,8.62468571 3.07114286,9.21382857 3.49514286,9.65382857 C3.918,10.0932571 4.45628571,10.3132571 5.10714286,10.3132571 C5.74771429,10.3132571 6.28085714,10.0932571 6.70314286,9.65382857 L6.70314286,9.65382857 Z M9.83228571,0.181257143 L9.83228571,12.2681143 L7.40485714,12.2681143 L7.40485714,11.2578286 C6.77342857,12.0184 5.86142857,12.3989714 4.66714286,12.3989714 C3.84257143,12.3989714 3.09514286,12.2138286 2.42828571,11.8446857 C1.76028571,11.4755429 1.23628571,10.9486857 0.856285714,10.2641143 C0.475714286,9.58068571 0.286,8.78754286 0.286,7.8864 C0.286,6.98468571 0.475714286,6.19154286 0.856285714,5.50811429 C1.23628571,4.82354286 1.76028571,4.29668571 2.42828571,3.92754286 C3.09514286,3.5584 3.84257143,3.3744 4.66714286,3.3744 C5.786,3.3744 6.65971429,3.72697143 7.29057143,4.43268571 L7.29057143,0.181257143 L9.83228571,0.181257143 Z" id="Fill-16" fill="#333333" mask="url(#mask-4)"></path>
            </g>
        </g>
    </g>
</svg>