<?xml version="1.0" encoding="UTF-8"?>
<svg width="432px" height="224px" viewBox="0 0 432 224" version="1.1" xmlns="http://www.w3.org/2000/svg" xmlns:xlink="http://www.w3.org/1999/xlink">
    <title>subscription screen illustration</title>
    <defs>
        <path d="M248,48 L280,48 C284.418278,48 288,44.418278 288,40 L288,8 C288,3.581722 291.581722,8.11624501e-16 296,0 L376,0 C380.418278,-8.11624501e-16 384,3.581722 384,8 L384,40 C384,44.418278 387.581722,48 392,48 L424,48 C428.418278,48 432,51.581722 432,56 L432,136 C432,140.418278 428.418278,144 424,144 L344,144 C339.581722,144 336,140.418278 336,136 L336,104 C336,99.581722 332.418278,96 328,96 L296,96 C291.581722,96 288,99.581722 288,104 L288,136 C288,140.418278 284.418278,144 280,144 L248,144 C243.581722,144 240,140.418278 240,136 L240,104 C240,99.581722 236.418278,96 232,96 L200,96 C195.581722,96 192,99.581722 192,104 L192,136 C192,140.418278 188.418278,144 184,144 L56,144 C51.581722,144 48,140.418278 48,136 L48,104 C48,99.581722 44.418278,96 40,96 L8,96 C3.581722,96 5.41083001e-16,92.418278 0,88 L0,8 C-5.41083001e-16,3.581722 3.581722,8.11624501e-16 8,0 L40,0 C44.418278,-8.11624501e-16 48,3.581722 48,8 L48,40 C48,44.418278 51.581722,48 56,48 L88,48 C92.418278,48 96,44.418278 96,40 L96,8 C96,3.581722 99.581722,8.11624501e-16 104,0 L232,0 C236.418278,-8.11624501e-16 240,3.581722 240,8 L240,40 C240,44.418278 243.581722,48 248,48 Z" id="path-1"></path>
        <polygon id="path-3" points="0 -0.000517171717 20.8322917 -0.000517171717 20.8322917 20.6863515 0 20.6863515"></polygon>
    </defs>
    <g id="subscription-screen-illustration" stroke="none" stroke-width="1" fill="none" fill-rule="evenodd">
        <g id="Group-3">
            <g id="Group" transform="translate(0.000000, 50.000000)">
                <mask id="mask-2" fill="white">
                    <use xlink:href="#path-1"></use>
                </mask>
                <use id="Rectangle" fill="#D8D8D8" xlink:href="#path-1"></use>
                <g id="7" mask="url(#mask-2)">
                    <g transform="translate(0.000000, 96.000000)" id="Group">
                        <g id="patten-cell/1">
                            <rect id="Rectangle-Copy-2" fill="#E1E3EB" x="0" y="0" width="48" height="48"></rect>
                            <polygon id="Rectangle-Copy-4" fill="#F0F1F5" points="0 0 48 48 0 48"></polygon>
                            <text id="4" font-family="Roboto-Bold, Roboto" font-size="16" font-weight="bold"></text>
                        </g>
                        <g transform="translate(48.000000, 0.000000)" id="patten-cell/1-copy">
                            <rect id="Rectangle" fill="#E1E3EB" x="0" y="0" width="48" height="48"></rect>
                            <rect id="Rectangle-Copy-2" fill="#F0F1F5" x="0" y="0" width="48" height="48" rx="24"></rect>
                            <text id="B" font-family="Roboto-Bold, Roboto" font-size="16" font-weight="bold"></text>
                        </g>
                        <g transform="translate(96.000000, 0.000000)" id="patten-cell/1-copy-2">
                            <rect id="Rectangle-Copy-2" fill="#F0F1F5" x="0" y="0" width="48" height="48"></rect>
                            <text id="?" font-family="Roboto-Bold, Roboto" font-size="16" font-weight="bold"></text>
                        </g>
                        <g transform="translate(144.000000, 0.000000)" id="patten-cell/1-copy-3">
                            <rect id="Rectangle-Copy-2" fill="#E1E3EB" x="0" y="0" width="48" height="48"></rect>
                            <path d="M48,0 L48,0 L48,0 L48,48 L0,48 C-3.24649801e-15,21.490332 21.490332,4.86974701e-15 48,0 Z" id="Rectangle-Copy-4" fill="#F0F1F5" transform="translate(24.000000, 24.000000) scale(-1, -1) translate(-24.000000, -24.000000) "></path>
                            <text id="6" font-family="Roboto-Bold, Roboto" font-size="16" font-weight="bold"></text>
                        </g>
                        <g transform="translate(192.000000, 0.000000)" id="patten-cell/1-copy-4">
                            <rect id="Rectangle-Copy-2" fill="#E1E3EB" x="0" y="0" width="48" height="48"></rect>
                            <path d="M48,0 L48,0 L48,0 L48,48 L0,48 C-3.24649801e-15,21.490332 21.490332,4.86974701e-15 48,0 Z" id="Rectangle-Copy-4" fill="#F0F1F5"></path>
                            <text id="7" font-family="Roboto-Bold, Roboto" font-size="16" font-weight="bold"></text>
                        </g>
                        <g transform="translate(240.000000, 0.000000)" id="patten-cell/1">
                            <rect id="Rectangle-Copy-2" fill="#E1E3EB" x="0" y="0" width="48" height="48"></rect>
                            <polygon id="Rectangle-Copy-4" fill="#F0F1F5" points="0 0 48 48 0 48"></polygon>
                            <text id="4" font-family="Roboto-Bold, Roboto" font-size="16" font-weight="bold"></text>
                        </g>
                        <g transform="translate(288.000000, 0.000000)" id="patten-cell/1-copy-2">
                            <rect id="Rectangle-Copy-2" fill="#F0F1F5" x="0" y="0" width="48" height="48"></rect>
                            <text id="?" font-family="Roboto-Bold, Roboto" font-size="16" font-weight="bold"></text>
                        </g>
                        <g transform="translate(336.000000, 0.000000)" id="patten-cell/1-copy">
                            <rect id="Rectangle" fill="#E1E3EB" x="0" y="0" width="48" height="48"></rect>
                            <rect id="Rectangle-Copy-2" fill="#F0F1F5" x="0" y="0" width="48" height="48" rx="24"></rect>
                            <text id="B" font-family="Roboto-Bold, Roboto" font-size="16" font-weight="bold"></text>
                        </g>
                        <g transform="translate(384.000000, 0.000000)" id="patten-cell/1-copy-2">
                            <rect id="Rectangle-Copy-2" fill="#F0F1F5" x="0" y="0" width="48" height="48"></rect>
                            <text id="?" font-family="Roboto-Bold, Roboto" font-size="16" font-weight="bold"></text>
                        </g>
                    </g>
                </g>
                <g id="6" mask="url(#mask-2)">
                    <g transform="translate(0.000000, 48.000000)" id="Group">
                        <g id="patten-cell/1">
                            <rect id="Rectangle-Copy-2" fill="#E1E3EB" x="0" y="0" width="48" height="48"></rect>
                            <polygon id="Rectangle-Copy-4" fill="#F0F1F5" transform="translate(24.000000, 24.000000) scale(1, -1) translate(-24.000000, -24.000000) " points="0 0 48 48 0 48"></polygon>
                            <text id="1" font-family="Roboto-Bold, Roboto" font-size="16" font-weight="bold"></text>
                        </g>
                        <g transform="translate(48.000000, 0.000000)" id="patten-cell/1-copy-2">
                            <rect id="Rectangle-Copy-2" fill="#F0F1F5" x="0" y="0" width="48" height="48"></rect>
                            <text id="?" font-family="Roboto-Bold, Roboto" font-size="16" font-weight="bold"></text>
                        </g>
                        <g transform="translate(96.000000, 0.000000)" id="patten-cell/1-copy-2">
                            <rect id="Rectangle" fill="#E1E3EB" x="0" y="0" width="48" height="48"></rect>
                            <polygon id="Rectangle-Copy" fill="#F0F1F5" points="24 -4.37150316e-14 48 24 24 48 -8.95283847e-14 24"></polygon>
                            <text id="A" font-family="Roboto-Bold, Roboto" font-size="16" font-weight="bold"></text>
                        </g>
                        <g transform="translate(144.000000, 0.000000)" id="patten-cell/1-copy-2">
                            <rect id="Rectangle-Copy-2" fill="#F0F1F5" x="0" y="0" width="48" height="48"></rect>
                            <text id="?" font-family="Roboto-Bold, Roboto" font-size="16" font-weight="bold"></text>
                        </g>
                        <g transform="translate(192.000000, 0.000000)" id="patten-cell/1-copy-2">
                            <rect id="Rectangle" fill="#E1E3EB" x="0" y="0" width="48" height="48"></rect>
                            <polygon id="Rectangle-Copy" fill="#F0F1F5" points="24 -4.37150316e-14 48 24 24 48 -8.95283847e-14 24"></polygon>
                            <text id="A" font-family="Roboto-Bold, Roboto" font-size="16" font-weight="bold"></text>
                        </g>
                        <g transform="translate(240.000000, 0.000000)" id="patten-cell/1-copy-5">
                            <rect id="Rectangle-Copy-2" fill="#F0F1F5" x="0" y="0" width="48" height="48"></rect>
                            <text id="?" font-family="Roboto-Bold, Roboto" font-size="16" font-weight="bold"></text>
                        </g>
                        <g transform="translate(288.000000, 0.000000)" id="patten-cell/1-copy-6">
                            <rect id="Rectangle-Copy-2" fill="#E1E3EB" x="0" y="0" width="48" height="48"></rect>
                            <path d="M48,0 L48,0 L48,0 L48,48 L0,48 C-3.24649801e-15,21.490332 21.490332,4.86974701e-15 48,0 Z" id="Rectangle-Copy-4" fill="#F0F1F5" transform="translate(24.000000, 24.000000) scale(-1, -1) translate(-24.000000, -24.000000) "></path>
                            <text id="6" font-family="Roboto-Bold, Roboto" font-size="16" font-weight="bold"></text>
                        </g>
                        <g transform="translate(336.000000, 0.000000)" id="patten-cell/1-copy-5">
                            <rect id="Rectangle-Copy-2" fill="#F0F1F5" x="0" y="0" width="48" height="48"></rect>
                            <text id="?" font-family="Roboto-Bold, Roboto" font-size="16" font-weight="bold"></text>
                        </g>
                        <g transform="translate(384.000000, 0.000000)" id="patten-cell/1-copy-12">
                            <rect id="Rectangle" fill="#E1E3EB" x="0" y="0" width="48" height="48"></rect>
                            <polygon id="Rectangle-Copy" fill="#F0F1F5" points="24 -4.37150316e-14 48 24 24 48 -8.95283847e-14 24"></polygon>
                            <text id="A" font-family="Roboto-Bold, Roboto" font-size="16" font-weight="bold"></text>
                        </g>
                    </g>
                </g>
                <g id="5" mask="url(#mask-2)">
                    <g id="patten-cell/1-copy-2">
                        <rect id="Rectangle-Copy-2" fill="#F0F1F5" x="0" y="0" width="48" height="48"></rect>
                        <text id="?" font-family="Roboto-Bold, Roboto" font-size="16" font-weight="bold"></text>
                    </g>
                    <g id="patten-cell/1-copy-2" transform="translate(48.000000, 0.000000)">
                        <rect id="Rectangle-Copy-2" fill="#F0F1F5" x="0" y="0" width="48" height="48"></rect>
                        <text id="?" font-family="Roboto-Bold, Roboto" font-size="16" font-weight="bold"></text>
                    </g>
                    <g id="patten-cell/1-copy-2" transform="translate(96.000000, 0.000000)">
                        <rect id="Rectangle-Copy-2" fill="#F0F1F5" x="0" y="0" width="48" height="48"></rect>
                        <text id="?" font-family="Roboto-Bold, Roboto" font-size="16" font-weight="bold"></text>
                    </g>
                    <g id="patten-cell/1-copy" transform="translate(144.000000, 0.000000)">
                        <rect id="Rectangle" fill="#E1E3EB" x="0" y="0" width="48" height="48"></rect>
                        <rect id="Rectangle-Copy-2" fill="#F0F1F5" x="0" y="0" width="48" height="48" rx="24"></rect>
                        <text id="B" font-family="Roboto-Bold, Roboto" font-size="16" font-weight="bold"></text>
                    </g>
                    <g id="patten-cell/1-copy-2" transform="translate(192.000000, 0.000000)">
                        <rect id="Rectangle-Copy-2" fill="#F0F1F5" x="0" y="0" width="48" height="48"></rect>
                        <text id="?" font-family="Roboto-Bold, Roboto" font-size="16" font-weight="bold"></text>
                    </g>
                    <g id="patten-cell/1-copy-2" transform="translate(240.000000, 0.000000)">
                        <rect id="Rectangle-Copy-2" fill="#F0F1F5" x="0" y="0" width="48" height="48"></rect>
                        <text id="?" font-family="Roboto-Bold, Roboto" font-size="16" font-weight="bold"></text>
                    </g>
                    <g id="patten-cell/1-copy-2" transform="translate(288.000000, 0.000000)">
                        <rect id="Rectangle-Copy-2" fill="#F0F1F5" x="0" y="0" width="48" height="48"></rect>
                        <text id="?" font-family="Roboto-Bold, Roboto" font-size="16" font-weight="bold"></text>
                    </g>
                    <g id="patten-cell/1" transform="translate(336.000000, 0.000000)">
                        <rect id="Rectangle-Copy-2" fill="#E1E3EB" x="0" y="0" width="48" height="48"></rect>
                        <polygon id="Rectangle-Copy-4" fill="#F0F1F5" points="0 0 48 48 0 48"></polygon>
                        <text id="4" font-family="Roboto-Bold, Roboto" font-size="16" font-weight="bold"></text>
                    </g>
                    <g id="patten-cell/1-copy-14" transform="translate(384.000000, 0.000000)">
                        <rect id="Rectangle-Copy-2" fill="#E1E3EB" x="0" y="0" width="48" height="48"></rect>
                        <polygon id="Rectangle-Copy-4" fill="#F0F1F5" transform="translate(24.000000, 24.000000) scale(-1, -1) translate(-24.000000, -24.000000) " points="0 0 48 48 0 48"></polygon>
                        <text id="2" font-family="Roboto-Bold, Roboto" font-size="16" font-weight="bold"></text>
                    </g>
                </g>
            </g>
            <g id="Group-52" transform="translate(87.000000, 0.000000)">
                <g id="Group-12" transform="translate(0.000000, 56.000000)">
                    <path d="M119.791667,25.8585859 L15.625,25.8585859 C12.7447917,25.8585859 10.4166667,23.5416566 10.4166667,20.6868687 L10.4166667,5.17171717 C10.4166667,2.31692929 12.7447917,0 15.625,0 L119.791667,0 C122.671875,0 125,2.31692929 125,5.17171717 L125,20.6868687 C125,23.5416566 122.671875,25.8585859 119.791667,25.8585859" id="Fill-1" fill="#2B6BF2"></path>
                    <g id="Group-5" transform="translate(0.000000, 10.343434)">
                        <mask id="mask-4" fill="white">
                            <use xlink:href="#path-3"></use>
                        </mask>
                        <g id="Clip-4"></g>
                        <polygon id="Fill-3" fill="#000000" mask="url(#mask-4)" points="7.415625 11.5427556 -0.00104166667 9.44303838 1.3375 5.41427071 8.67604167 8.20182626 8.31666667 -0.000517171717 12.665625 -0.000517171717 12.2958333 8.34663434 19.5197917 5.60562424 20.8322917 9.70679596 13.2958333 11.8065131 18.1604167 18.1573818 14.634375 20.6863515 10.259375 13.8079677 5.93125 20.4743111 2.37916667 18.0384323"></polygon>
                    </g>
                    <polygon id="Fill-6" fill="#000000" points="38.665625 21.8861899 31.2489583 19.7864727 32.5875 15.7577051 39.9260417 18.5452606 39.5666667 10.3429172 43.915625 10.3429172 43.5458333 18.6900687 50.7697917 15.9490586 52.0822917 20.0502303 44.5458333 22.1499475 49.4104167 28.5008162 45.884375 31.0297859 41.509375 24.151402 37.18125 30.8177455 33.6291667 28.3818667"></polygon>
                    <polygon id="Fill-8" fill="#000000" points="69.915625 21.8861899 62.4989583 19.7864727 63.8375 15.7577051 71.1760417 18.5452606 70.8166667 10.3429172 75.165625 10.3429172 74.7958333 18.6900687 82.0197917 15.9490586 83.3322917 20.0502303 75.7958333 22.1499475 80.6604167 28.5008162 77.134375 31.0297859 72.759375 24.151402 68.43125 30.8177455 64.8791667 28.3818667"></polygon>
                    <polygon id="Fill-10" fill="#000000" points="101.165625 21.8861899 93.7489583 19.7864727 95.0875 15.7577051 102.426042 18.5452606 102.066667 10.3429172 106.415625 10.3429172 106.045833 18.6900687 113.269792 15.9490586 114.582292 20.0502303 107.045833 22.1499475 111.910417 28.5008162 108.384375 31.0297859 104.009375 24.151402 99.68125 30.8177455 96.1291667 28.3818667"></polygon>
                </g>
                <path d="M190.655738,224 C205.226332,217.20154 219.430083,210.769328 232.532154,204.87504 C218.1232,209.544689 203.780737,214.740818 190.770377,219.719488 C191.332107,207.049632 194.255397,196.565812 195.195435,192.491314 C197.38389,191.690149 199.149328,189.607119 201.384785,188.805954 C219.681142,186.25367 265.663921,179.420875 269.319753,182.671317 C272.060768,185.109148 280.921203,197.756114 281.954098,210.254293 C273.103981,214.340236 206.222544,222.96993 190.655738,224" id="Fill-12" fill="#333333"></path>
                <path d="M217.744262,69.3904818 C217.744262,69.3904818 213.056089,65.5232632 207.59847,56.4392689 C205.896156,53.6040647 202.014879,47.2645481 201.276075,45.7675602 C198.586418,40.267264 181.428226,21.5435754 181.428226,21.5435754 C181.428226,21.5435754 154.04253,17.2680874 150.740041,23.3807877 C147.438686,29.493488 149.820791,33.26998 150.559596,37.545468 C151.297265,41.820956 150.864877,48.8409216 148.845933,53.1844545 C146.825853,57.5279873 154.769986,57.2784894 155.506521,58.3785486 C156.245325,59.4786078 157.096482,67.8481307 165.289153,69.1863471 C173.484093,70.5245635 178.487762,67.5986327 183.685495,70.7173574 C188.883227,73.836082 189.610683,78.9054272 190.778471,80.9127517 C191.948528,82.9200763 195.18179,86.469752 202.820641,82.7499641 C210.469706,79.0188353 217.744262,69.3904818 217.744262,69.3904818" id="Fill-14" fill="#FFFFFF"></path>
                <path d="M255.795254,199.199225 C255.795254,199.199225 256.94266,206.493538 271.925974,209.93722 C266.575196,208.158953 262.371825,205.297768 260.792721,202.447981 C257.441385,196.395035 262.57745,202.083209 266.154859,202.960943 C269.176742,203.701887 270.234401,201.729835 275.231868,194.183601 C284.116885,180.755408 295.544374,156.691813 294.976351,140.071859 C294.590095,128.809504 271.484052,100.44843 271.484052,100.44843 L196.92534,128.775306 L196.67541,151.117631 L213.55592,183.286018 L255.795254,199.199225 Z" id="Fill-16" fill="#FFFFFF"></path>
                <path d="M269.33167,202.90583 C273.342715,196.776328 276.932145,190.395243 280.28114,183.899801 C283.598229,177.392924 286.583723,170.725948 289.157857,163.921744 C289.797117,162.217834 290.412448,160.502489 290.982199,158.775708 C291.563345,157.048927 292.1217,155.345017 292.566106,153.6068 C293.454917,150.141802 293.909578,146.596755 293.624703,143.086014 C293.339828,139.575274 292.360996,136.133147 290.993594,132.83854 C289.603402,129.54622 287.87136,126.367113 285.968392,123.279491 C284.065425,120.19187 282.025717,117.172862 279.917639,114.199596 L278.322337,111.981082 C277.786771,111.237766 277.250066,110.505885 276.69285,109.78544 C275.598928,108.333114 274.516402,106.869353 273.352971,105.474205 C271.097897,102.615296 268.69241,99.8936145 266.243621,97.2062399 C263.748113,94.5646078 261.161444,92.0144608 258.436896,89.6015415 C253.002613,84.7985741 247.053276,80.521646 240.582047,77.2281826 C237.345863,75.581451 233.972938,74.1863033 230.497458,73.1456603 C228.754021,72.6310567 226.987794,72.1965025 225.187381,71.8763047 C223.397225,71.5675425 221.575162,71.3388298 219.75082,71.3731367 C221.575162,71.235909 223.40862,71.3731367 225.232961,71.6018494 C227.055024,71.8305621 228.855437,72.1965025 230.634199,72.6424923 C232.422077,73.0770465 234.166653,73.6488284 235.897556,74.2663527 C236.752182,74.5979862 237.619343,74.9067484 238.461435,75.2726888 L239.737676,75.8101637 L240.992267,76.3933812 C247.681141,79.4810031 253.811659,83.700753 259.474982,88.4122353 C262.278156,90.8022834 264.954845,93.3409947 267.542653,95.9711911 L269.434225,97.9838632 L270.380011,98.9901992 L271.301868,100.019407 L273.137605,102.089257 C273.741541,102.786831 274.311292,103.507276 274.903833,104.216285 C276.088914,105.622868 277.205626,107.098066 278.332593,108.550391 C278.902343,109.270837 279.450444,110.014153 279.996265,110.746034 L281.638286,112.964547 C282.720813,114.45118 283.790805,115.949248 284.839146,117.470188 C285.877232,119.002563 286.890249,120.534939 287.87136,122.113057 C289.818768,125.257857 291.630575,128.517013 293.113067,131.970575 C293.842348,133.696213 294.469074,135.481316 294.95792,137.311018 C295.43765,139.14072 295.766966,141.0276 295.91624,142.937351 C296.212511,146.745418 295.699735,150.576356 294.742554,154.201453 C294.275358,156.019719 293.694212,157.803679 293.067487,159.53046 C292.452156,161.268676 291.791245,162.995458 291.118939,164.710803 C289.762932,168.141494 288.270185,171.515007 286.663488,174.831342 C285.056791,178.147676 283.358934,181.418268 281.523197,184.608811 C279.711389,187.810789 277.786771,190.944154 275.768714,194.008904 C273.729006,197.039348 271.610673,200.04692 269.33167,202.90583" id="Fill-18" fill="#333333"></path>
                <path d="M177.553772,137.621252 L176.809298,150.184571 L168.047411,147.475284 C168.047411,147.475284 143.491219,138.112811 140.410241,135.037713 C137.329264,131.962615 127.708368,123.217448 120.057465,120.14235 C112.406562,117.068395 109.692095,116.084135 108.58111,116.69001 C107.470126,117.307316 106.611117,118.164685 107.596114,118.907738 C108.58111,119.650792 112.89906,121.86852 112.773072,122.474395 C112.647084,123.0917 111.421565,124.200565 111.421565,124.200565 C111.421565,124.200565 109.692095,121.982836 108.58111,121.742773 C107.470126,121.491278 105.614667,121.742773 105.614667,121.742773 C105.614667,121.742773 105.614667,120.268098 104.377695,119.650792 C103.140723,119.033486 101.273811,119.342139 100.311721,119.650792 C99.3496314,119.959445 99.0747487,117.068395 98.0897522,117.433063 C97.1047557,117.798874 95.501273,120.885403 95.3752851,122.360079 C95.2492972,123.834754 95.3752851,129.379075 98.341728,132.454173 C101.308171,135.529271 110.803079,138.855864 119.072468,141.439404 C127.341858,144.022943 134.374274,145.497618 135.233283,146.240672 C136.092292,146.983725 156.078558,166.188798 161.014994,169.263896 C165.95143,172.338994 182.856718,182.810331 187.415191,183.427637 C191.985116,184.044943 190.496168,184.536501 196.05109,179.975296 C201.606012,175.414092 200.621016,153.865543 200.621016,153.865543 C200.621016,153.865543 194.333073,138.227127 193.955109,138.101379 C193.588599,137.987063 177.553772,137.621252 177.553772,137.621252" id="Fill-20" fill="#FFFFFF"></path>
                <path d="M177.613115,140.154618 L176.881659,151.67713 C176.881659,151.67713 160.564841,146.709545 154.471281,144.02705 C150.92241,142.587021 147.453417,140.953999 144.04148,139.161101 C142.329806,138.271503 140.663777,137.288264 139.030839,136.215951 C137.400185,135.131076 135.814033,133.965121 134.353405,132.537654 C134.170826,132.354939 133.999659,132.173365 133.81708,131.978087 L133.314989,131.407101 C133.006888,131.07707 132.721609,130.721917 132.413507,130.390744 C132.093995,130.070992 131.785894,129.739819 131.466381,129.421209 C131.135457,129.111734 130.815945,128.793123 130.462199,128.50763 C129.091719,127.319978 127.596856,126.2568 126.011846,125.332944 C124.425695,124.406803 122.759665,123.573163 121.047991,122.81946 C120.192154,122.442609 119.323765,122.077177 118.445106,121.723166 C118.001211,121.54045 117.578999,121.370296 117.09973,121.163599 C116.643283,120.958043 116.198248,120.741068 115.764624,120.513816 C114.897376,120.045607 114.087183,119.541996 113.276991,119.097769 C112.477069,118.663819 111.666876,118.241288 110.892058,118.10311 C110.047632,117.966073 109.13474,117.955795 108.404425,118.171628 C108.039268,118.274406 107.731167,118.481103 107.67297,118.61814 C107.639878,118.685516 107.617055,118.742615 107.650148,118.868232 C107.685522,118.982429 107.7654,119.130886 107.879512,119.280484 C108.107735,119.576255 108.45007,119.82749 108.836908,120.101563 C109.214618,120.376779 109.601456,120.626871 109.990577,120.878105 C110.777947,121.381716 111.598409,121.860202 112.409743,122.351251 C113.231346,122.8423 114.05295,123.32307 114.851731,123.858656 C115.251122,124.133872 115.63796,124.406803 116.01567,124.715136 C116.380827,125.023469 116.745984,125.367203 116.951385,125.801153 C116.700339,125.40032 116.289537,125.126247 115.900417,124.863593 C115.502167,124.6135 115.090224,124.383964 114.669153,124.166989 C113.824727,123.744459 112.96889,123.344768 112.101641,122.946219 C111.234393,122.545386 110.367145,122.157116 109.511308,121.700326 C109.076543,121.483351 108.655471,121.243537 108.233258,120.993445 C107.822456,120.75363 107.364869,120.468137 106.97803,120.033045 C106.784041,119.81607 106.601462,119.565978 106.475939,119.222244 C106.350416,118.891071 106.339005,118.445702 106.498762,118.08027 C106.658518,117.715981 106.909563,117.452185 107.17202,117.258049 C107.434477,117.063914 107.695792,116.938297 107.970801,116.846939 C108.505985,116.652803 109.030898,116.574007 109.556953,116.538606 C110.081866,116.504347 110.595368,116.516908 111.11914,116.584285 C112.237434,116.721322 113.17429,117.155272 114.064361,117.567524 C114.94302,117.988912 115.776035,118.434282 116.620461,118.812275 C117.453476,119.222244 118.251116,119.507737 119.176561,119.82749 C120.078043,120.147242 124.893552,122.294152 126.605227,123.25341 C128.328312,124.201248 128.887459,124.817914 130.416554,126.086646 C133.850173,129.044358 136.110723,132.458858 138.895047,134.262034 C141.67937,136.066353 147.932686,139.310699 154.939139,142.130232 C162.195496,144.837851 168.654213,147.394729 175.740543,150.089787 L176.335065,139.881686 L177.613115,140.154618 Z" id="Fill-22" fill="#333333"></path>
                <path d="M134.826595,133.738748 L133.826298,133.901969 C131.595752,133.507228 130.158544,133.763057 128.905299,133.866084 C127.790025,133.948273 124.720149,135.059567 123.041491,135.706664 L123.029993,135.706664 L120.535,136.60959 C120.489009,136.621166 119.764657,136.263469 119.730164,136.263469 C118.063002,135.486721 114.556215,133.64614 114.406746,131.655072 C114.222783,129.038901 114.843657,125.600836 113.728383,125.103068 C112.61311,124.605301 110.566526,124.420086 110.566526,124.420086 C110.566526,124.420086 109.577727,122.544777 108.646416,122.359562 C107.715106,122.174346 106.047945,122.417442 106.047945,122.417442 C106.047945,122.417442 105.427071,121.168394 104.932671,120.611589 C104.438272,120.044366 103.633435,119.419263 102.771111,119.488719 C101.908786,119.546599 100.161141,120.553709 100.161141,120.553709 C100.161141,120.553709 100.103653,119.303504 99.72423,118.933072 C99.3563047,118.563799 97.8041202,118.006994 97.8041202,118.006994 L96.1944474,120.253891 L95.1711554,125.600836 L85.8120577,120.98202 C85.053212,120.692621 85.1911839,119.569751 85.9960203,119.478301 L99.4367884,116.584306 C100.644043,116.421085 101.874293,116.571573 103.012562,117.01146 L134.953069,132.245447 C135.723413,132.511694 135.608436,133.61257 134.826595,133.738748" id="Fill-24" fill="#2B6BF2"></path>
                <path d="M111.396721,131.587444 C109.523315,130.813012 107.672617,130.027191 105.821919,129.207203 L100.281178,126.735853 L94.7858531,124.184782 C92.9578628,123.31924 91.1412265,122.442309 89.3245902,121.542601 C91.1979964,122.317033 93.0486946,123.102854 94.8993928,123.911453 L100.440134,126.382803 L105.935458,128.933874 C107.774803,129.810805 109.591439,130.687736 111.396721,131.587444" id="Fill-26" fill="#FFFFFF"></path>
                <path d="M97.3258744,129.376517 C96.6874104,128.196345 96.2655681,127.461174 96.4251841,124.307166 C96.4821898,123.230215 96.6076024,120.097998 98.0327452,119.708048 C98.4089829,119.604826 99.0702492,119.651849 99.3096732,120.659985 C98.9562378,121.980081 98.2151635,125.075597 98.3063727,126.830372 C98.4317852,129.113874 98.7738195,129.754998 99.1500572,130.603713 C99.2754698,130.890441 99.6289052,131.728834 99.7657189,132.015562 C99.5490972,131.774711 98.3177738,131.201255 97.3258744,129.376517 M192.035167,183.476363 C191.396703,183.935128 190.655628,184.233325 189.903153,184.325078 C189.139276,184.428301 188.363999,184.336548 187.622924,184.118634 C186.88185,183.913337 186.140776,183.534856 185.3883,183.235512 L184.259587,182.753809 L183.142275,182.250314 C182.401201,181.906241 181.648726,181.573636 180.919053,181.205477 C177.977558,179.771837 175.10447,178.236122 172.299789,176.56163 C169.495108,174.887138 166.781636,173.075017 164.125169,171.181465 C158.823638,167.386333 153.85274,163.141611 149.06426,158.68127 C146.67002,156.444791 144.332786,154.150967 141.98415,151.845673 C139.612713,149.551849 137.264077,147.233939 134.630413,145.089214 C134.516402,144.997461 134.390989,144.929793 134.254176,144.883916 L134.242774,144.883916 C131.928342,144.079931 129.648114,143.426191 127.356484,142.773598 C125.064855,142.118711 122.773225,141.499379 120.481595,140.880046 C118.189965,140.260714 115.898336,139.65285 113.629508,139.010579 C111.360681,138.369455 109.080452,137.715716 106.925637,136.935815 C106.389783,136.739693 103.231666,135.467768 102.285371,133.815067 C101.339077,132.174983 100.198962,130.144948 99.9823406,126.900334 C99.9025326,125.615792 100.210363,122.907933 100.67781,121.955996 C101.07685,121.119897 101.293472,120.603786 102.000343,120.408811 C102.752818,120.20122 103.083451,120.46501 103.824526,120.890514 C104.189362,121.131366 104.5656,121.474293 104.611205,122.047749 C104.736617,123.550204 103.858729,125.259103 103.721915,126.097495 C103.66491,126.475976 103.391282,127.851124 104.029746,129.82496 C104.098153,130.041726 104.428786,132.015562 105.876731,134.136203 C106.868631,135.605397 108.818226,136.716755 110.402985,138.115988 C109.240068,136.706433 107.700914,135.822164 106.777422,134.355263 C105.739918,132.69224 105.204064,130.798688 104.953239,129.502678 C104.66821,128.047246 104.759419,127.587334 105.112855,126.143372 C105.66011,123.895424 105.945138,123.882808 106.355579,123.584611 C106.754619,123.309352 107.244869,123.343759 107.415886,123.355229 C107.586903,123.379314 107.780722,123.42519 108.008745,123.516943 C108.45339,123.676364 108.795424,123.917215 109.05765,124.203943 C109.627707,124.834745 108.932238,129.284764 108.943639,129.779083 C108.95504,131.234515 109.798724,134.491745 111.588704,136.739693 C113.105056,138.643567 116.679367,139.666021 116.987197,139.976834 C116.952994,139.757774 113.857531,138.34537 112.44379,136.316483 C111.121257,134.412609 110.197764,131.991477 110.072352,130.190825 C109.981143,128.861554 110.311776,127.565543 110.745019,125.694929 C110.984443,125.316448 111.782523,125.432286 112.398185,125.591707 C113.15066,125.82109 113.184864,126.681274 113.253271,126.95768 C113.378683,127.519667 113.367282,128.275482 113.34448,129.010652 C113.333079,129.389133 113.298875,129.721738 113.310276,130.190825 C113.321678,130.627798 113.378683,131.073947 113.504096,131.487983 C113.732119,132.335551 114.188164,133.081044 114.724018,133.723314 C115.259872,134.355263 115.886935,134.882843 116.5368,135.328991 C117.186665,135.788903 117.882135,136.154768 118.589005,136.487373 C119.307277,136.819977 120.014148,137.095236 120.778025,137.325765 L120.789426,137.325765 C120.92624,137.371642 121.085856,137.347557 121.211268,137.26842 C122.089156,136.706433 123.081056,136.200645 124.061554,135.764818 C125.053453,135.318669 126.068155,134.940188 127.11706,134.65346 C128.165965,134.355263 129.237673,134.147672 130.320781,134.034128 C131.40389,133.918289 132.509801,133.941228 133.60431,134.090326 C132.532603,133.839152 131.415291,133.711845 130.297979,133.711845 C129.180667,133.711845 128.063355,133.839152 126.968845,134.055919 C125.874336,134.274979 124.791227,134.583498 123.730921,134.95051 C122.761824,135.3072 121.815529,135.708619 120.880635,136.212114 C119.603707,135.743027 118.33818,135.099609 117.255072,134.285301 C116.126359,133.436586 115.168663,132.348167 114.883634,131.109502 C114.803826,130.798688 114.781024,130.490169 114.769623,130.167887 C114.769623,129.881159 114.815227,129.456801 114.83803,129.07832 C114.883634,128.299567 114.952041,127.541458 114.792425,126.613606 C114.712617,126.153694 114.473193,125.615792 114.165362,125.247634 C113.868932,124.880622 113.492695,124.526226 112.956841,124.307166 C112.420987,124.07893 111.85093,124.090399 111.417687,124.158067 C111.280873,124.182152 111.15546,124.203943 111.030048,124.215413 C110.893234,123.838079 110.699415,123.42519 110.402985,123.0685 C109.924137,122.461784 109.274272,122.059218 108.647209,121.806897 C108.339378,121.680737 107.985943,121.566046 107.586903,121.509847 C107.187863,121.452501 106.720416,121.498378 106.332777,121.63486 C106.218766,121.669268 106.116155,121.715144 106.013545,121.761021 C105.990743,121.588984 105.956539,121.406625 105.910935,121.223119 C105.796923,120.809084 105.568901,120.362935 105.238267,120.018861 C104.919035,119.67364 104.531397,119.42132 104.16656,119.295159 C102.182761,118.607012 100.962839,119.216023 100.47259,119.789479 C100.47259,119.789479 100.540997,117.861519 98.9220344,117.563322 C98.4203841,117.471569 97.9187338,117.551853 97.4854904,117.712421 C96.6190035,118.045025 95.9919407,118.698765 95.615703,119.502751 L95.5472961,119.651849 L95.5016916,119.765393 L95.4104824,119.994776 L95.2508664,120.442072 C95.1482561,120.741416 95.0456458,121.049935 94.9658378,121.360748 C94.6238036,122.586797 94.4071819,123.849548 94.3501761,125.155881 C94.3045716,126.451891 94.418583,127.817864 94.9202333,129.159751 C95.0456458,129.492355 95.2052618,129.82496 95.3876801,130.146095 C95.4788893,130.306663 95.5814996,130.466084 95.6727087,130.593391 C95.7639178,130.731021 95.855127,130.86865 95.9577373,130.993663 C96.333975,131.509774 96.7216138,131.991477 97.1206538,132.47318 C97.9187338,133.425117 98.7510172,134.320856 99.6517075,135.18104 C100.552398,136.041224 101.487291,136.855531 102.547598,137.588408 C102.809824,137.771914 103.07205,137.95542 103.357079,138.115988 C103.630706,138.289172 103.915735,138.448592 104.212165,138.597691 C104.805024,138.908504 105.409285,139.159678 105.990743,139.366122 C108.305175,140.214837 110.585403,140.869724 112.877033,141.545255 C115.168663,142.200142 117.460292,142.829797 119.751922,143.460599 L126.604009,145.330065 C128.804429,145.949398 131.016251,146.56873 133.136864,147.279816 C135.553906,149.230714 137.845535,151.478661 140.171369,153.679586 C142.554207,155.939003 144.959849,158.221358 147.411094,160.434898 C152.302184,164.884917 157.489704,169.049356 162.996456,172.752735 C165.744132,174.610733 168.674225,176.17168 171.478906,177.91384 C176.757635,181.205477 186.140776,186.699187 190.210984,185.712842 C191.031866,185.517867 195.615125,185.036164 195.672131,177.24863 C195.295893,178.901331 194.646028,180.448515 193.699733,181.768611 C193.232287,182.421204 192.673631,183.018746 192.035167,183.476363 Z" id="Fill-28" fill="#333333"></path>
                <path d="M256.851537,126.168416 C257.671973,125.416222 258.5152,124.698219 259.347032,123.968819 L261.886967,121.81481 L264.474761,119.706389 C265.352173,119.022576 266.206794,118.31597 267.095601,117.654952 C268.861818,116.298724 270.650826,114.976686 272.508204,113.745824 C270.947095,115.352783 269.329012,116.868567 267.676743,118.350161 C266.856307,119.102354 266.01308,119.820357 265.168714,120.549757 L262.628778,122.703766 L260.040984,124.812188 C259.164712,125.49486 258.310091,126.202606 257.409889,126.863625 C255.643671,128.219853 253.854664,129.54189 251.997286,130.772752 C253.56979,129.17719 255.198129,127.661406 256.851537,126.168416 L256.851537,126.168416 Z M249.467606,152.347032 C244.464082,151.013598 239.417256,149.908102 234.335107,149.121717 C229.252957,148.379781 224.136623,147.936443 218.997498,147.822474 C217.721263,147.776886 216.433633,147.76435 215.146004,147.731299 L211.281975,147.718762 C208.696459,147.708505 206.132595,147.754093 203.52315,147.76435 C202.862243,147.76435 202.211591,147.754093 201.529033,147.718762 C201.198579,147.708505 200.856731,147.674315 200.502348,147.640124 C200.138849,147.594536 199.808395,147.560346 199.317273,147.377996 C199.261437,147.366599 199.169138,147.309615 199.101908,147.264027 C199.056328,147.240094 199.032399,147.229836 198.976563,147.194506 C198.919589,147.148919 198.862614,147.104471 198.817034,147.058883 C198.737269,147.001899 198.57774,146.751168 198.53216,146.557421 C198.508231,146.443452 198.508231,146.329484 198.520765,146.215515 C198.53216,146.15853 198.543555,146.090149 198.553811,146.044562 L198.589135,145.94199 C198.62332,145.873609 198.657505,145.805227 198.69169,145.736846 C198.725874,145.679862 198.747525,145.657068 198.782849,145.611481 C198.838684,145.543099 198.919589,145.463321 198.965168,145.429131 L199.123558,145.303765 L199.261437,145.21259 C199.626076,144.984653 199.9326,144.84789 200.252798,144.711128 C200.890916,144.449 201.517638,144.232459 202.144361,144.038712 C204.651251,143.240931 207.169536,142.635757 209.68782,142.010069 C212.19471,141.360447 214.72439,140.779206 217.23128,140.106791 C219.73817,139.45603 222.22227,138.750563 224.70637,138.009766 C227.16768,137.257573 229.628991,136.459792 232.044721,135.593629 C231.975212,135.605026 231.896587,135.616423 231.816822,135.62782 C221.652523,137.234779 211.442643,139.046882 201.153,140.346125 C201.096025,140.346125 201.050445,140.310795 201.03905,140.266347 C201.026516,140.22076 201.06184,140.175172 201.10742,140.152378 C206.1212,138.796151 211.17942,137.66786 216.251314,136.630745 L220.068624,135.867154 L223.897329,135.171945 C226.449798,134.71607 229.013663,134.31718 231.611713,134.032258 C232.260086,133.963877 232.910737,133.906892 233.58304,133.861305 C233.913493,133.838511 234.243947,133.827114 234.585796,133.815717 L235.121359,133.815717 C235.211379,133.815717 235.315073,133.827114 235.417627,133.838511 C235.531577,133.861305 235.632992,133.861305 235.839241,133.941083 C235.872286,133.95248 235.90761,133.975273 235.9304,133.98667 C235.95319,133.998067 235.987375,134.020861 236.055745,134.066448 C236.11158,134.112036 236.146905,134.146226 236.20274,134.214608 C236.272249,134.305783 236.317829,134.418612 236.340619,134.53372 C236.363409,134.636292 236.350874,134.750261 236.329224,134.852833 C236.295039,134.966801 236.283644,134.978198 236.24832,135.035183 C236.181089,135.160548 236.146905,135.182202 236.101325,135.22779 C235.941795,135.377089 235.850636,135.422676 235.759476,135.479661 C235.577157,135.570836 235.406232,135.650614 235.246703,135.707598 C234.916249,135.832964 234.608586,135.935536 234.289527,136.036968 C233.662804,136.243251 233.036082,136.413064 232.397965,136.596554 L224.877295,138.601264 C222.3818,139.286216 219.886305,139.992822 217.401065,140.722222 C214.918105,141.440225 212.445399,142.238006 209.984089,143.001597 C207.522779,143.787981 205.06033,144.597159 202.668529,145.484975 C202.292495,145.634274 201.916462,145.769897 201.563218,145.930593 L201.608798,145.930593 C202.224125,145.94199 202.862243,145.930593 203.50036,145.919196 C208.65088,145.72431 213.869769,145.530563 219.077263,145.748243 C224.283618,145.964784 229.503646,146.546024 234.608586,147.61733 C239.713525,148.700033 244.71591,150.227214 249.524581,152.153286 C249.570161,152.176079 249.591811,152.233064 249.581556,152.277511 C249.558766,152.335635 249.513186,152.358429 249.467606,152.347032 L249.467606,152.347032 Z M282.957377,113.32414 C282.957377,113.32414 266.389113,90.2454724 253.50142,82.2676614 C240.613727,74.2898505 238.517055,72.3067946 218.028927,69.309417 C207.967182,80.3073993 199.341202,89.3907069 191.19267,82.1422958 C191.19267,82.1422958 181.872737,83.9430017 178.921444,101.289042 C175.981545,118.635083 178.431461,123.545995 176.790587,129.768688 C175.161109,135.99252 173.6,138.442848 173.6,138.442848 C173.6,138.442848 180.630687,143.514456 186.362349,145.315162 C192.092871,147.115868 195.854346,148.016221 195.854346,148.016221 C195.854346,148.016221 193.848834,191.267353 194.464161,195.928674 C195.079489,200.589995 221.379044,204.533313 255.974125,199.678245 C260.623266,183.278145 266.877957,146.090149 266.877957,146.090149 L255.586697,136.266045 L282.957377,113.32414 Z" id="Fill-30" fill="#2B6BF2"></path>
                <path d="M168.942176,56.1907071 C168.728938,57.3700509 168.014591,58.6089574 167.449511,59.2522359 C166.649868,60.1456781 165.573017,60.4911424 165.487721,60.5149676 C165.007936,60.6579183 164.453517,60.8961696 164.592122,61.4322349 C164.698741,61.8849123 165.114555,62.2780269 165.507979,62.2780269 C165.583679,62.2780269 165.668974,62.2661143 165.743607,62.2422892 C165.902469,62.194639 169.75248,60.9795575 170.57238,56.4527835 C170.669404,55.9048056 170.360209,55.3687403 169.869761,55.2615272 C169.379314,55.1543141 169.038133,55.6427292 168.942176,56.1907071" id="Fill-32" fill="#333333"></path>
                <path d="M160.786586,48.2152466 C160.984211,48.2152466 161.170856,48.1820971 161.346522,48.126848 C161.851563,47.9500506 162.257791,47.596456 162.444437,47.0992135 C162.949478,45.7621837 161.708834,46.403074 161.411299,45.4196389 C161.1478,44.3809546 162.53227,43.8616125 161.291627,43.3533202 C160.950175,43.2207222 160.292525,42.9997255 159.469089,43.5301175 C158.382153,44.226257 158.359097,45.7290342 158.887194,46.8450674 C159.358199,47.8285025 160.105879,48.2152466 160.786586,48.2152466" id="Fill-34" fill="#333333"></path>
                <path d="M160.583432,40.1793722 C160.893405,40.1793722 161.203378,40.0168337 161.398546,39.7042596 C161.697038,39.2166441 161.570753,38.5539871 161.123015,38.22891 C158.379181,36.228436 155.256491,37.6537738 155.130206,37.7162886 C154.636546,37.9413419 154.406936,38.56649 154.613585,39.1041174 C154.819085,39.6417448 155.405738,39.8918041 155.887918,39.6667507 C155.910878,39.6542478 158.149571,38.6290048 160.032369,40.0043307 C160.216057,40.1168574 160.399745,40.1793722 160.583432,40.1793722" id="Fill-36" fill="#333333"></path>
                <path d="M146.69227,32.9574266 C147.375173,33.0719831 148.001168,33.1407171 148.604399,33.1979953 C149.275921,35.2600129 149.822244,37.3563974 150.140932,39.4642376 C150.300277,40.5296134 150.379949,41.5949891 150.368567,42.6374536 C150.345803,43.152958 150.32304,43.679918 150.243368,44.1725111 C150.175078,44.6651042 150.049879,45.2149756 149.936061,45.7419356 C149.685663,46.7844001 149.389738,47.8154089 149.048287,48.834962 C148.695453,49.8545151 148.285711,50.851157 147.875969,51.9050771 C147.671098,52.4434928 147.466227,52.9819085 147.329646,53.6234251 C147.261356,53.9441834 147.215829,54.287853 147.227211,54.6658895 C147.238592,55.0439261 147.318265,55.4448739 147.477609,55.8114548 C147.636953,56.1780357 147.864587,56.4873384 148.08084,56.7508184 C148.297093,57.0028428 148.536109,57.2319558 148.809271,57.4381576 C149.33283,57.8505611 149.947443,58.1598637 150.562056,58.3546099 C151.791282,58.7555577 152.997745,58.7441021 153.919665,58.9159369 C154.386316,59.0075821 154.693622,59.1450499 154.852967,59.3168847 C154.898493,59.3627073 154.932639,59.4199856 154.966784,59.4772639 C155.012311,59.5574534 155.080601,59.6949213 155.13751,59.7980222 C155.251327,60.0271352 155.365144,60.2562483 155.478961,60.496817 C155.922849,61.4361806 156.2643,62.4671894 156.696806,63.5325651 C157.129312,64.5864852 157.687016,65.7091392 158.517882,66.6714141 C159.348748,67.633689 160.395867,68.3553951 161.477131,68.8823552 C162.569776,69.3978596 163.685185,69.7644405 164.811976,70.0164649 C165.369681,70.142477 165.938767,70.2570336 166.519235,70.3372232 C167.099703,70.4174127 167.668789,70.4632353 168.249257,70.4976023 C169.38743,70.5548806 170.51422,70.5434249 171.629629,70.509058 C173.849066,70.440324 176.011594,70.3028562 178.128594,70.440324 C180.222832,70.5777919 182.271542,71.0474737 183.967419,72.1472164 C185.68606,73.2240478 187.00634,74.8851175 187.973787,76.7638446 C188.463201,77.7146638 188.850179,78.6883944 189.225776,79.7308588 C189.635518,80.8191459 190.17046,81.8845216 190.933035,82.8124295 C191.684229,83.7403375 192.697203,84.4964106 193.823993,84.9202697 C194.950784,85.3441289 196.157247,85.4472298 197.306801,85.3441289 C199.617291,85.1264715 201.722911,84.2100192 203.657804,83.1446435 C205.604079,82.0563564 207.402391,80.7389563 209.075505,79.295544 C209.10965,79.261177 209.121032,79.2038988 209.086887,79.1695318 C209.052742,79.1237092 208.995833,79.1122535 208.950306,79.1466205 C207.174757,80.452565 205.319536,81.6324973 203.361879,82.5947721 C201.404222,83.5341357 199.321367,84.2672975 197.227129,84.3703984 C196.178872,84.416221 195.144273,84.2787532 194.222354,83.8892609 C193.300434,83.4997687 192.515095,82.8467965 191.910725,82.0449008 C191.308632,81.2315494 190.864745,80.2921858 190.546057,79.295544 C190.227368,78.2416239 189.817626,77.1418812 189.328212,76.1108724 C188.827416,75.0684079 188.235566,74.0717661 187.495754,73.1438582 C186.767324,72.2274059 185.890931,71.3911433 184.900721,70.7267154 C183.910511,70.0622875 182.805345,69.5696944 181.679693,69.2260248 C180.552902,68.8823552 179.403348,68.5959639 177.30911,68.5845082 C171.458903,68.5730526 166.769633,70.3028562 162.478722,67.8857134 C158.404065,65.5945827 158.301629,61.7683945 157.288656,59.6490987 C157.163457,59.3856186 157.026876,59.1221386 156.890295,58.8586586 C156.810623,58.7211908 156.753715,58.6180899 156.662661,58.4577107 C156.560225,58.2858759 156.423645,58.1140411 156.275682,57.953662 C155.979757,57.6443594 155.615542,57.4152463 155.262709,57.2663228 C154.909875,57.1173993 154.579805,57.0372097 154.261117,56.9799315 C153.635122,56.8653749 153.077417,56.8424636 152.553858,56.7851854 C152.030299,56.7279071 151.552266,56.6591732 151.119761,56.5217053 C150.687255,56.3956931 150.288895,56.200947 149.947443,55.937467 C149.776717,55.8114548 149.617373,55.6625313 149.469411,55.4906965 C149.33283,55.341773 149.230394,55.1928496 149.173486,55.0553817 C149.048287,54.780446 149.036905,54.4482321 149.116577,53.990006 C149.196249,53.5432355 149.378357,53.0506424 149.560464,52.5465937 C149.936061,51.5384962 151.210815,48.5256594 151.449831,45.3180765 C151.996154,38.032281 149.765335,33.7478667 149.59461,33.209451 C154.340789,33.2209066 156.730951,31.193256 160.373103,29.9560454 C165.039611,28.3751653 168.055768,28.8104801 170.036188,30.7808525 C171.880027,32.613757 172.016608,37.9062688 172.767802,43.1987806 C173.097872,45.5357339 176.193701,44.5620033 178.151358,43.4278937 C180.712246,41.9386587 175.92054,36.1764652 182.396741,34.1831815 C190.534675,31.6743934 187.564045,43.5195389 188.91847,47.5633845 C190.022497,50.8397013 200.300195,51.675964 204.192745,51.8707101 C204.511433,52.4893154 204.841503,53.1079207 205.171573,53.7265259 C205.695133,54.7117121 206.241455,55.673987 206.79916,56.6362619 C207.379628,57.5870811 207.982859,58.5379003 208.620236,59.4428969 C209.894989,61.2758014 211.044543,63.0285164 212.490023,64.7010418 C214.037937,66.511035 215.608615,68.2752056 217.22482,69.7644405 C217.258965,69.7988075 217.668707,69.2718474 217.714234,69.2374804 C217.74838,69.2031135 217.759761,69.1343796 217.714234,69.1000126 C216.23461,67.4618542 214.754986,65.8351514 213.355034,64.1397147 C211.955081,62.4442781 210.657565,60.6801075 209.485247,58.8472029 C207.151993,55.1699383 205.41059,51.1031813 203.49846,47.1395253 C203.407406,46.9447792 203.327734,46.7500331 203.248062,46.555287 C201.495276,42.1677718 199.617291,35.9817191 200.721319,31.6171152 C202.723364,23.6439805 201.300649,17.1486251 194.46137,16.8851451 C196.463415,15.235531 198.09214,14.3992683 200.721319,14.937684 C202.326142,15.2584423 202.326142,13.6546509 200.721319,13.6546509 C196.760478,13.6546509 194.768677,15.6250232 193.902527,16.8622338 C193.653267,16.7591329 193.414251,16.6445764 193.175235,16.5414755 C191.866337,13.4942717 189.51032,8.65998605 187.757534,8.65998605 C185.481189,8.65998605 189.544465,10.1950436 192.947601,16.4498303 C172.949909,7.5946103 170.912581,-1.04295225 160.646265,0.102613076 C155.057838,0.732674005 153.305052,7.88100163 153.692031,10.9969393 C147.511754,2.05007413 139.009605,5.16601181 136.369045,14.2732561 C133.091108,26.4849825 139.351057,31.754583 146.69227,32.9574266" id="Fill-38" fill="#333333"></path>
                <path d="M144.594441,11.7214156 C145.534972,12.8351194 146.716371,13.7393146 147.932179,14.5552956 C149.159457,15.3602498 150.455554,16.0549364 151.797531,16.650382 C153.139508,17.2458276 154.527365,17.7640858 155.938161,18.1941298 C157.348957,18.6352006 157.543946,18.6793077 158.989152,19.0321644 C158.989152,19.0321644 158.679465,18.3264511 158.369778,17.3450685 C158.060091,16.3526592 157.842163,15.3381963 157.714847,14.3237334 C157.601295,13.2982438 157.566885,12.2507006 157.830693,11.225211 C158.060091,10.2107481 158.725344,9.19628525 159.734694,8.67802705 C160.732575,8.12668853 161.879564,8.01642083 162.969203,8.03847437 C164.069165,8.07155468 165.137012,8.24798301 166.180772,8.49057195 C167.223385,8.74418767 168.245352,9.06396401 169.243232,9.4388742 C169.4841,9.52708836 169.736437,9.62632929 170.011715,9.74762377 C170.275522,9.85789147 170.504918,9.99021271 170.757257,10.1115072 C171.227523,10.3651229 171.686318,10.6297654 172.145114,10.8944079 C173.945886,11.9750314 175.688163,13.0997619 177.432733,14.1914122 C178.292974,14.7317239 179.187626,15.2610089 180.047867,15.7131065 C180.495193,15.9336419 180.965458,16.1541773 181.435724,16.3747127 L182.83505,17.0142654 C184.714965,17.8522999 186.620113,18.6241739 188.581464,19.241673 C190.542815,19.8701989 192.606248,20.3002429 194.613479,20.9397956 C194.659358,20.9508224 194.683445,20.9949295 194.659358,21.0390366 C194.649036,21.0721169 194.613479,21.0941704 194.580216,21.0941704 L191.448937,20.730287 C190.40403,20.5979657 189.349947,20.443591 188.30504,20.2230555 C186.218667,19.8040383 184.188497,19.1314053 182.215676,18.3705581 C181.228119,17.9735944 180.276118,17.5656039 179.302324,17.1245331 C178.292974,16.650382 177.421263,16.0769899 176.526611,15.5256514 C174.760249,14.4119476 173.074175,13.1990029 171.353692,12.0963258 C170.917836,11.8206566 170.49345,11.5560141 170.057594,11.3023984 C169.839666,11.1921307 169.621738,11.0598094 169.41528,10.9605685 L169.092977,10.8061937 L168.738557,10.6518189 C167.796879,10.2548552 166.844878,9.85789147 165.882555,9.5491419 C164.919084,9.22936556 163.931527,8.9536963 162.934793,8.8434286 C161.948383,8.7331609 160.914946,8.75521444 160.032911,9.16320494 C159.597056,9.37271358 159.218549,9.67043637 158.931802,10.0453466 C158.645055,10.4202568 158.450067,10.8723543 158.323898,11.3354787 C158.0945,12.2727542 158.12891,13.2761903 158.323898,14.246546 C158.702404,16.1872576 159.585586,18.039755 160.663755,19.6606903 L161.374888,20.730287 L160.021442,20.5318051 C158.507416,20.3112697 157.004861,19.9584131 155.536715,19.4842619 C154.080039,18.999084 152.634833,18.4477455 151.281386,17.7199787 C150.593193,17.367122 149.927939,16.9922119 149.297096,16.5621678 C148.654782,16.1431505 148.035408,15.7020797 147.450444,15.2058751 C146.291985,14.2244925 145.213815,13.1218155 144.514152,11.7875763 C144.491212,11.754496 144.514152,11.7103889 144.548562,11.6883353 C144.525622,11.6883353 144.560032,11.6883353 144.594441,11.7214156" id="Fill-40" fill="#FFFFFF"></path>
                <path d="M196.006641,28.8398871 C192.729114,27.5866485 189.520588,26.1319966 186.266061,24.9347061 C186.060209,24.8675684 185.864708,24.7892409 185.656556,24.7332928 C185.461054,24.6773446 185.243703,24.6213965 185.116052,24.6325861 C185.081551,24.6325861 185.094201,24.6437758 185.140202,24.5990172 C185.197702,24.5206898 185.162052,24.4759313 185.173552,24.4983106 C185.186202,24.5318794 185.231052,24.6213965 185.289703,24.6997239 C185.403554,24.8563787 185.553055,25.0018439 185.702556,25.1584987 C186.323561,25.7403595 187.002067,26.299841 187.693223,26.8369433 C189.073234,27.8999581 190.544096,28.8398871 192.040258,29.7574367 C192.786614,30.2162116 193.535271,30.6637968 194.270127,31.1449509 C195.006133,31.6372946 195.743289,32.0848798 196.432144,32.7338784 C196.524145,32.8233954 196.605796,32.9129125 196.697797,33.0359984 C196.743797,33.1031362 196.789797,33.1814636 196.811648,33.3045495 C196.823148,33.3828769 196.835798,33.4612043 196.800147,33.561911 C196.777147,33.6514281 196.697797,33.7521347 196.640296,33.7968932 C196.502295,33.8975999 196.410294,33.9199792 196.318293,33.9423584 C196.236643,33.9535481 196.156142,33.9647377 196.087142,33.9647377 C195.94914,33.9647377 195.823789,33.9647377 195.707638,33.9535481 C195.224634,33.9087895 194.823281,33.8192725 194.386278,33.774514 C193.535271,33.6849969 192.661263,33.6066695 191.902257,33.7409451 C191.718256,33.774514 191.544604,33.8304621 191.441103,33.8975999 C191.395103,33.9311688 191.360603,33.9647377 191.349103,33.987117 C191.327253,34.0094962 191.327253,34.0430651 191.327253,34.0990133 C191.337603,34.3228059 191.579105,34.6920637 191.843607,34.982994 C192.119609,35.2851141 192.431262,35.5648548 192.752114,35.8445956 L193.741122,36.6838178 C194.408128,37.2321097 195.086633,37.7804016 195.765139,38.3286935 C196.111292,38.5972446 196.443644,38.8769853 196.777147,39.1567261 C196.949649,39.3021913 197.11065,39.4476565 197.272801,39.5931217 C197.421153,39.7497765 197.593654,39.9064313 197.674155,40.1302239 C197.685655,40.1526032 197.674155,40.1749825 197.652304,40.1749825 C197.628154,40.1861721 197.616654,40.1749825 197.606304,40.1526032 L197.606304,40.1414136 C197.514303,39.9735691 197.329152,39.8392935 197.1693,39.7162076 C196.995649,39.5931217 196.811648,39.4700357 196.640296,39.3469498 L195.547787,38.6308135 C194.823281,38.1496594 194.086125,37.6685053 193.373119,37.1537823 C192.672764,36.6278697 191.948258,36.1467156 191.291602,35.4865274 C191.131751,35.3186829 190.9696,35.1508385 190.831598,34.9382355 C190.693597,34.7256325 190.568246,34.4906503 190.532596,34.166151 C190.486596,33.8416518 190.706247,33.4276354 190.9696,33.2709806 C191.235252,33.0919465 191.487104,33.0136191 191.728606,32.957671 C192.22311,32.8569643 192.683114,32.8569643 193.144267,32.8681539 C193.603121,32.8793436 194.052775,32.9241021 194.500129,32.9912399 C194.937132,33.047188 195.398286,33.1478947 195.789289,33.2038428 C195.89164,33.2150325 195.983641,33.2262221 196.065291,33.2262221 C196.111292,33.2262221 196.144642,33.2262221 196.168792,33.2150325 C196.190642,33.2150325 196.202143,33.2038428 196.144642,33.2374117 C196.087142,33.2709806 196.052641,33.4164458 196.065291,33.4388251 C196.065291,33.4612043 196.065291,33.4500147 196.052641,33.4164458 C196.019291,33.3604977 195.960641,33.2933599 195.89164,33.2262221 C195.627138,32.9464814 195.270635,32.6779302 194.937132,32.4205687 C194.603629,32.1520176 194.248276,31.8946561 193.902124,31.6372946 L191.786106,30.0931257 C190.372745,29.0636797 188.957083,28.0454233 187.531071,27.027167 C186.819216,26.512444 186.10621,26.0201003 185.403554,25.4718084 C185.231052,25.3263432 185.058551,25.180878 184.8987,25.0130335 C184.818199,24.9235165 184.736548,24.8339995 184.668698,24.6773446 C184.644548,24.5990172 184.587047,24.4423624 184.725048,24.274518 C184.840049,24.151432 184.96655,24.1290528 185.048201,24.1178631 C185.357554,24.0842942 185.564555,24.1402424 185.806057,24.1850009 C186.036059,24.2297594 186.255711,24.2857076 186.473063,24.3528454 C187.33557,24.6102069 188.152076,24.9235165 188.968583,25.270395 C189.78624,25.6172736 190.578596,25.9753417 191.373253,26.3445995 C192.960266,27.0943048 194.523129,27.8999581 196.041141,28.7839389 C196.065291,28.7951286 196.065291,28.8175078 196.052641,28.8398871 C196.052641,28.8398871 196.030791,28.8510767 196.006641,28.8398871" id="Fill-42" fill="#FFFFFF"></path>
                <path d="M255.352299,136.271794 C255.352299,136.271794 253.008557,138.191369 252.518325,138.191369 C252.02695,138.191369 236.234404,117.289337 227.777049,115.515695 C235.901869,117.591305 251.661276,140.749678 252.151508,140.62732 C252.644025,140.503838 256.872131,137.426906 256.872131,137.426906 L255.352299,136.271794 Z" id="Fill-44" fill="#FFFFFF"></path>
                <path d="M195.856557,148.053139 C195.856557,148.053139 193.787474,131.22605 194.050048,124.95 C193.451379,133.659156 194.387193,147.655201 194.387193,147.655201 L195.856557,148.053139 Z" id="Fill-46" fill="#FFFFFF"></path>
                <path d="M176.609836,135.605381 C177.845783,135.955642 179.047077,136.366293 180.237976,136.813178 C181.426564,137.260063 182.604756,137.743181 183.782949,138.238378 C184.950745,138.745653 186.116232,139.263798 187.260926,139.83267 C188.416017,140.388256 189.546851,140.980077 190.655738,141.632287 C189.420946,141.294104 188.219652,140.870167 187.029908,140.42449 C185.83901,139.977605 184.649267,139.494487 183.482625,138.99929 C182.315984,138.492015 181.150497,137.972663 179.995407,137.404998 C178.850712,136.837334 177.718723,136.257591 176.609836,135.605381" id="Fill-48" fill="#FFFFFF"></path>
                <path d="M198.681967,193.865471 C200.69395,194.461645 202.751146,194.90771 204.819646,195.281384 C206.876842,195.675284 208.967947,195.962725 211.04775,196.228874 C215.218659,196.729235 219.423477,197.00603 223.628295,197.123135 L226.781909,197.176365 C227.833113,197.197657 228.884318,197.155073 229.935523,197.155073 C230.986727,197.133781 232.037932,197.155073 233.089136,197.091197 L236.24275,196.963446 C237.293955,196.942154 238.345159,196.84634 239.397494,196.782464 L242.549977,196.569545 C244.652387,196.409856 246.744623,196.164999 248.845902,196.005309 C247.806,196.164999 246.766099,196.324688 245.714894,196.473731 C244.674993,196.622775 243.623789,196.79311 242.583887,196.920862 L239.430274,197.250887 C238.379069,197.357346 237.327864,197.474452 236.27666,197.527682 C234.162947,197.666079 232.060538,197.804477 229.946826,197.83535 L228.364367,197.868352 C227.833113,197.878998 227.301859,197.889644 226.781909,197.878998 L223.605689,197.83535 C219.378264,197.698017 215.150839,197.39993 210.968627,196.770754 C208.878652,196.45244 206.797719,196.090477 204.740523,195.611409 C202.683327,195.13234 200.637434,194.610688 198.681967,193.865471" id="Fill-50" fill="#FFFFFF"></path>
            </g>
        </g>
    </g>
</svg>